<?xml version="1.0" encoding="utf-8"?>
<!-- Generator: Adobe Illustrator 25.0.0, SVG Export Plug-In . SVG Version: 6.00 Build 0)  -->
<svg version="1.1" id="Calque_2" xmlns="http://www.w3.org/2000/svg" xmlns:xlink="http://www.w3.org/1999/xlink" x="0px" y="0px"
	 viewBox="0 0 358.71 264.82" style="enable-background:new 0 0 358.71 264.82;" xml:space="preserve">
<style type="text/css">
	.st0{fill:#00B4D5;}
	.st1{fill:none;stroke:#000000;stroke-width:2;stroke-miterlimit:10;}
	.st2{fill:#99846D;stroke:#99846D;stroke-miterlimit:10;}
	.st3{fill:#99846D;}
	.st4{fill:#A3D9EA;}
	.st5{fill:none;stroke:#99846D;stroke-width:5;stroke-miterlimit:10;}
	.st6{fill:none;stroke:#99846D;stroke-width:5;stroke-linecap:round;stroke-miterlimit:10;}
</style>
<g>
	<path class="st0" d="M205.33,201.85c-16.75-3.5-41.94-11.04-52.6-13.37c-26.62-5.8-57.16-6.48-61.72-6.79
		c11.25,1.58,35.03,13.4,60.47,20.58c25.13,7.1,80.48,17.88,94.56,2.65C240.29,207.37,228.24,206.64,205.33,201.85z"/>
</g>
<g>
	<path class="st0" d="M83.17,143.35c0.57-0.52,1.62-0.59,2.31-0.16c1.4,0.85,3.81,1.83,6.06,1.81c1.59,0,3.01-0.35,3.96-0.87
		c0.95-0.52,1.36-1.1,1.36-1.69c0-0.31-0.1-0.52-0.29-0.75c-0.19-0.23-0.48-0.47-0.95-0.7c-0.92-0.45-2.47-0.85-4.34-1.1h-0.06
		c-1.49-0.21-2.89-0.49-4.09-0.92s-2.25-1.01-2.95-1.83c-0.48-0.56-0.73-1.22-0.73-1.93c0-1.41,1.08-2.63,2.54-3.43
		c1.49-0.8,3.42-1.24,5.49-1.24c3.04,0,5.29,1.1,6.91,1.88c0.73,0.38,0.95,1.13,0.44,1.67c-0.48,0.56-1.49,0.73-2.25,0.35
		c-1.62-0.8-3.17-1.5-5.1-1.5c-1.43,0-2.7,0.33-3.55,0.8c-0.86,0.47-1.2,0.99-1.2,1.48c0,0.28,0.06,0.47,0.22,0.66
		c0.16,0.19,0.44,0.4,0.86,0.61c0.82,0.42,2.25,0.8,3.96,1.03h0.06c1.62,0.23,3.11,0.54,4.38,0.99c1.3,0.47,2.44,1.08,3.17,1.95
		c0.48,0.56,0.76,1.27,0.76,2c0,1.5-1.14,2.79-2.73,3.64c-1.55,0.85-3.61,1.34-5.87,1.34c-3.42-0.02-6.31-1.29-8.12-2.35
		C82.72,144.64,82.63,143.86,83.17,143.35z"/>
	<path class="st0" d="M119.06,133.6h-5.04v12.54c0,0.73-0.76,1.29-1.74,1.29c-0.95,0-1.74-0.56-1.74-1.29V133.6h-5.01
		c-0.98,0-1.74-0.61-1.74-1.31c0-0.73,0.76-1.29,1.74-1.29h13.54c0.95,0,1.74,0.56,1.74,1.29
		C120.81,132.99,120.01,133.6,119.06,133.6z"/>
	<path class="st0" d="M126.99,146.14v-13.85c0-0.73,0.76-1.29,1.74-1.29h0.03c0,0,0,0,0.06,0h10.27c0.92,0,1.74,0.56,1.74,1.29
		c0,0.73-0.82,1.31-1.74,1.31h-8.59v4.3h7.39c0.95,0,1.74,0.61,1.74,1.29c0,0.73-0.79,1.31-1.74,1.31h-7.39v4.32h8.59
		c0.92,0,1.74,0.59,1.74,1.31c0,0.7-0.82,1.29-1.74,1.29h-10.27c-0.06,0-0.06-0.02-0.06-0.02l-0.03,0.02
		C127.75,147.43,126.99,146.85,126.99,146.14z"/>
	<path class="st0" d="M162.06,145.48c0.32,0.68-0.19,1.41-1.11,1.64c-0.13,0.02-0.38,0.07-0.7,0.07c0,0,0,0-0.03,0
		c-0.32,0-0.79-0.05-1.24-0.26c-0.41-0.19-0.76-0.49-1.01-0.82c-0.44-0.68-0.67-1.53-0.67-2.82c-0.03-0.45-0.16-0.75-0.38-1.01
		c-0.19-0.26-0.57-0.49-0.95-0.68c-0.67-0.33-1.49-0.52-1.78-0.56h-3.74v5.1c0,0.7-0.79,1.29-1.78,1.29s-1.74-0.59-1.74-1.29v-13.85
		c0-0.73,0.76-1.29,1.74-1.29c0,0,0,0,0.03,0h5.64c3.77,0,6.79,2.25,6.79,5.05c0,1.55-0.95,2.91-2.47,3.85
		c0.41,0.23,0.79,0.52,1.11,0.87c0.63,0.68,1.05,1.55,1.05,2.54c-0.03,0.7,0.06,1.15,0.13,1.39
		C161.46,144.8,161.87,145.09,162.06,145.48z M157.62,136.04c0-1.36-1.46-2.44-3.27-2.44h-3.9v4.84h3.9
		C156.16,138.44,157.62,137.36,157.62,136.04z"/>
	<path class="st0" d="M171.64,146.14c0,0.7-0.79,1.29-1.71,1.29c-0.98,0-1.74-0.59-1.74-1.29V132.5c0,0,0,0,0-0.02
		c-0.03-0.4,0.22-0.82,0.7-1.08c0.79-0.4,1.87-0.28,2.41,0.28l10.24,10.5v-9.68c0-0.68,0.76-1.27,1.71-1.27s1.74,0.59,1.74,1.27
		v13.64c0,0.7-0.79,1.29-1.74,1.29c-0.51,0-0.98-0.19-1.3-0.47c-0.06-0.05-0.13-0.09-0.16-0.14l-10.15-10.43V146.14z"/>
</g>
<path class="st1" d="M257.94,114.77"/>
<path class="st1" d="M240.95,114.77"/>
<g>
	<polyline class="st2" points="227.57,131.48 227.57,134.63 192.86,134.63 192.86,131.48 	"/>
	<rect x="192.86" y="149.74" class="st2" width="34.71" height="3.15"/>
	<rect x="192.86" y="168" class="st2" width="34.71" height="3.15"/>
	
		<rect x="196.48" y="145.86" transform="matrix(-1.836970e-16 1 -1 -1.836970e-16 376.5802 -81.7139)" class="st2" width="65.33" height="3.15"/>
	
		<rect x="164.88" y="143.18" transform="matrix(-1.836970e-16 1 -1 -1.836970e-16 337.6164 -48.1134)" class="st2" width="55.97" height="3.15"/>
</g>
<g>
	<path class="st3" d="M152.15,79.96c0.01-0.04,0.01-0.08,0.01-0.12l-0.01-0.01V79.96z"/>
	<path class="st3" d="M138.94,109.89c0.26,0,0.39,0,0.65-0.13c0.13,0,0.13,0,0.13-0.13c0-0.13,0.39,0,0.52,0
		c0.52-0.13,1.04-0.39,1.42-0.52c0.26-0.13,0.52-0.26,0.78-0.26h0.13c1.42-0.52,2.72-0.91,4.27-1.17h0.13
		c0.39,0,0.78,0.13,1.04,0.39c0.13,0,0.13,0.13,0.13,0.13l1.17-0.13c0.77,2.35,1.81,4.59,3.08,6.7h7.21
		c-1.87-2.26-3.37-4.83-4.34-7.6l12.82-2.2c1.04,0,2.07,0.65,2.2,1.68c0.13,0.39,0.13,0.91-0.13,1.3l-2.82,6.83h7.9l2.05-3.72
		c0.65-0.78,1.68-1.04,2.59-0.52c0.39,0.26,0.65,0.52,1.04,0.91l1.84,3.33h7.89l-2.99-7.21c-0.26-1.04,0.26-2.07,1.17-2.46
		c0.39-0.13,0.78-0.26,1.17-0.26l12.95,2.2c-0.65,1.81-1.42,3.5-2.46,4.92c-0.61,0.98-1.31,1.92-2.07,2.81h7.93
		c1.34-2.16,2.43-4.49,3.2-6.96l1.04,0.13c0.13,0,0.13-0.13,0.13-0.13c0.26-0.26,0.65-0.39,1.04-0.39h0.13
		c1.42,0.26,2.85,0.65,4.15,1.17h0.13c0.26,0.13,0.52,0.26,0.78,0.26c0.52,0.26,0.91,0.52,1.42,0.65c0.13,0,0.26,0.13,0.52,0.13
		c0.13,0,0.13,0,0.26,0.13c0.26,0.13,0.39,0.13,0.65,0.13c1.17,0,2.2-0.78,2.59-1.81c-0.13-1.42-1.17-2.46-2.33-2.72
		c-0.13,0-0.26,0-0.26-0.13c0-0.13-0.26-0.13-0.52-0.13c-0.52-0.13-1.04-0.13-1.55-0.13c-0.26,0-0.52,0-0.78-0.13h-0.13
		c-1.42-0.13-2.98-0.39-4.4-0.78c-0.39-0.13-0.78-0.52-0.91-0.91l-1.04-0.26c0.52-3.76,0.26-7.64-0.52-11.4
		c-0.91-3.76-2.46-7.38-4.53-10.62l0.78-0.78v-0.13c0-0.39,0.13-0.91,0.39-1.17c1.17-1.04,2.33-1.81,3.63-2.59
		c0.26-0.13,0.52-0.26,0.78-0.39c0.52-0.26,0.91-0.52,1.42-0.78c0.13-0.13,0.26-0.13,0.39-0.26c0.13-0.13,0-0.13,0-0.26
		c1.17-0.91,1.42-2.46,0.52-3.63c-0.39-0.52-1.17-0.91-1.81-0.91c-0.65,0-1.3,0.26-1.81,0.65l-0.13,0.13
		c-0.13,0.13-0.26,0.26-0.39,0.26c-0.39,0.39-0.78,0.78-1.04,1.17c-0.13,0.26-0.39,0.39-0.52,0.52c-0.91,1.04-2.07,2.07-3.24,2.85
		c-0.26,0.13-0.52,0.26-0.78,0.26c-0.13,0-0.39,0-0.52-0.13h-0.13l-1.04,0.65c-1.04-1.04-2.2-2.07-3.24-3.11
		c-4.79-3.76-10.75-6.09-16.84-6.74l-0.13-1.04v0.13c-0.39-0.26-0.52-0.65-0.65-1.04c0-1.42,0-2.85,0.26-4.4v-0.13
		c0-0.26,0.13-0.52,0.13-0.78c0.13-0.52,0.13-1.04,0.26-1.55v-0.78c0.13-1.3-0.91-2.59-2.2-2.72c-0.78-0.13-1.55,0.26-2.2,0.91
		c-0.52,0.52-0.78,1.17-0.78,1.81v0.65c0,0.52,0.13,1.04,0.26,1.55c0.13,0.26,0.13,0.52,0.13,0.78v0.13
		c0.26,1.42,0.26,2.85,0.26,4.4c-0.13,0.39-0.26,0.78-0.65,1.04v0.26l-0.13,1.04c-1.42,0.13-2.85,0.39-4.4,0.65
		c-6.09,1.3-11.66,4.53-15.93,9.07l-0.78-0.52h-0.13c-0.13,0-0.26,0.13-0.52,0.13c-0.26,0-0.52-0.13-0.78-0.26
		c-1.17-0.91-2.33-1.94-3.24-2.98c-0.13-0.26-0.39-0.39-0.52-0.52c-0.39-0.39-0.65-0.78-1.04-1.17c-0.13-0.13-0.26-0.13-0.39-0.26
		c-0.13-0.13-0.13-0.13-0.13-0.13c-0.52-0.39-1.17-0.65-1.81-0.65c-0.78,0-1.42,0.26-1.81,0.91c-0.78,1.17-0.52,2.72,0.52,3.63
		c0.13,0,0.13,0.13,0.13,0.13s0.26,0.26,0.39,0.26c0.39,0.26,0.91,0.52,1.42,0.78c0.26,0.13,0.52,0.26,0.78,0.39
		c1.3,0.78,2.59,1.55,3.63,2.59c0.23,0.23,0.45,0.68,0.4,1.05l0.77,0.77c-0.13,0.26-0.26,0.39-0.39,0.65
		c-4.02,6.35-5.7,13.86-4.53,21.24l-1.04,0.26c0,0.13-0.13,0.13-0.13,0.13c-0.13,0.39-0.52,0.65-0.91,0.91
		c-1.42,0.39-2.85,0.65-4.4,0.78c-0.26,0-0.52,0-0.78,0.13c-0.52,0-1.04,0.13-1.55,0.13c-0.13,0-0.26,0.13-0.52,0.13
		c-0.13,0-0.13,0-0.26,0.13c-1.42,0.26-2.33,1.55-2.07,2.98C136.6,109.24,137.77,110.02,138.94,109.89z M200.59,85.27
		c1.42,2.33,2.46,4.92,3.11,7.64c0.65,2.72,0.78,5.44,0.52,8.16l-12.31-3.5c-1.17-0.26-1.81-1.42-1.55-2.59
		c0.13-0.39,0.26-0.65,0.52-0.91L200.59,85.27z M196.71,80.48L186.09,88c-0.91,0.52-2.2,0.39-2.85-0.52
		c-0.26-0.26-0.39-0.52-0.39-0.91l-0.78-13.08C187.77,74.13,192.82,76.6,196.71,80.48z M177.15,94.47h3.89l2.46,3.11l-0.91,3.76
		l-3.5,1.68l-3.5-1.68l-0.91-3.76L177.15,94.47z M173.26,73.88l2.59-0.52l-0.65,12.95c0,1.17-1.04,2.07-2.2,2.07
		c-0.39,0-0.65-0.13-1.04-0.26l-10.75-7.64C164.58,77.24,168.73,74.91,173.26,73.88z M157.46,85.27l9.59,8.55
		c0.91,0.78,1.04,2.07,0.26,2.98c-0.26,0.39-0.52,0.52-1.04,0.65l-12.56,3.63C153.31,95.64,154.61,90.07,157.46,85.27z"/>
</g>
<path class="st4" d="M91.01,179.1c4.81-0.21,30.58-2.71,63.13,5.13c22.85,5.5,57.56,15.61,76.59,18.32
	c22.84,2.05,23.55-3.79,44.09-25.29c-19.87,9.2-38.98,12.57-69.97,4.31c-29.11-8.83-54.7-17.38-84.03-11.31
	C116.8,171.14,99.93,175.66,91.01,179.1z"/>
<path class="st5" d="M179.59,167.81"/>
<path class="st5" d="M179.57,167.81"/>
<g>
	<path class="st5" d="M179.59,116.78c-25.85-0.13-49.21-0.78-49.85-1.98c-4.72-8.84-14.79-44.26-16.67-44.26
		c-14.77,0-11.75-0.2-40.5-0.63c-5.73-0.09,0.76,107.24,21.1,102.09"/>
	<path class="st5" d="M178.57,116.78c25.85-0.13,49.21-0.78,49.85-1.98c4.72-8.84,14.79-44.18,16.67-44.26
		c14.31-0.63,12.84-0.63,40.5-0.63c5.74,0,1.94,87.97-15.4,99.39"/>
</g>
<path class="st5" d="M93.25,172.17c45.27-15.74,73.8-8.54,99.86-0.43"/>
<path class="st6" d="M191.53,171.3c43.78,13.63,72.26,7.62,82.57-6.14"/>
</svg>
